HIERARCHY
ROOT Hips
{
 OFFSET 0.000000 0.000000 0.000000
 CHANNELS 6 Xposition Yposition Zposition Yrotation Xrotation Zrotation
 JOINT Chest
 {
  OFFSET 0.000000 9.585900 0.002600
  CHANNELS 3 Yrotation Xrotation Zrotation
  JOINT Chest2
  {
   OFFSET 0.000000 9.601200 -0.005300
   CHANNELS 3 Yrotation Xrotation Zrotation
   JOINT Chest3
   {
    OFFSET 0.000000 9.561800 0.000000
    CHANNELS 3 Yrotation Xrotation Zrotation
    JOINT Chest4
    {
     OFFSET 0.000000 9.552100 0.000000
     CHANNELS 3 Yrotation Xrotation Zrotation
     JOINT Neck
     {
      OFFSET 0.000000 14.453000 0.000000
      CHANNELS 3 Yrotation Xrotation Zrotation
      JOINT Head
      {
       OFFSET 0.000000 8.936500 -0.011300
       CHANNELS 3 Yrotation Xrotation Zrotation
       End Site
       {
        OFFSET 0.000000 17.073600 -0.006000
       }
      }
     }
     JOINT RightCollar
     {
      OFFSET -2.921100 9.558500 0.000000
      CHANNELS 3 Yrotation Xrotation Zrotation
      JOINT RightShoulder
      {
       OFFSET -13.519700 0.000000 0.000000
       CHANNELS 3 Yrotation Xrotation Zrotation
       JOINT RightElbow
       {
        OFFSET 0.000000 -29.696600 0.000000
        CHANNELS 3 Yrotation Xrotation Zrotation
        JOINT RightWrist
        {
         OFFSET 0.000000 -24.004700 0.000000
         CHANNELS 3 Yrotation Xrotation Zrotation
         End Site
         {
          OFFSET 0.000000 -17.728500 0.000000
         }
        }
       }
      }
     }
     JOINT LeftCollar
     {
      OFFSET 2.921100 9.558500 0.000000
      CHANNELS 3 Yrotation Xrotation Zrotation
      JOINT LeftShoulder
      {
       OFFSET 13.519700 0.000000 0.000000
       CHANNELS 3 Yrotation Xrotation Zrotation
       JOINT LeftElbow
       {
        OFFSET 0.000000 -29.696600 0.000000
        CHANNELS 3 Yrotation Xrotation Zrotation
        JOINT LeftWrist
        {
         OFFSET 0.000000 -24.004700 0.000000
         CHANNELS 3 Yrotation Xrotation Zrotation
         End Site
         {
          OFFSET 0.000000 -17.728500 0.000000
         }
        }
       }
      }
     }
    }
   }
  }
 }
 JOINT RightHip
 {
  OFFSET -7.771700 -0.012900 -0.001300
  CHANNELS 3 Yrotation Xrotation Zrotation
  JOINT RightKnee
  {
   OFFSET 0.000000 -40.869800 0.001200
   CHANNELS 3 Yrotation Xrotation Zrotation
   JOINT RightAnkle
   {
    OFFSET 0.000000 -39.717900 0.002100
    CHANNELS 3 Yrotation Xrotation Zrotation
    JOINT RightToe
    {
     OFFSET 0.000000 -4.965400 11.033500
     CHANNELS 3 Yrotation Xrotation Zrotation
     End Site
     {
      OFFSET 0.000000 -1.423100 5.872300
     }
    }
   }
  }
 }
 JOINT LeftHip
 {
  OFFSET 7.771700 -0.012900 -0.001300
  CHANNELS 3 Yrotation Xrotation Zrotation
  JOINT LeftKnee
  {
   OFFSET 0.000000 -40.869800 0.001200
   CHANNELS 3 Yrotation Xrotation Zrotation
   JOINT LeftAnkle
   {
    OFFSET 0.000000 -39.717900 0.002100
    CHANNELS 3 Yrotation Xrotation Zrotation
    JOINT LeftToe
    {
     OFFSET 0.000000 -4.965400 11.033500
     CHANNELS 3 Yrotation Xrotation Zrotation
     End Site
     {
      OFFSET 0.000000 -1.423100 5.872300
     }
    }
   }
  }
 }
}
MOTION
Frames: 12
Frame Time: 0.008333
-137.032588 57.731267 112.248828 175.788111 -28.449569 -0.607818 2.210805 20.782995 2.991380 0.175159 2.718249 0.388832 0.332146 4.425072 0.634803 1.721900 17.687495 2.755653 0.650784 6.391805 -2.487492 2.708184 -23.831587 -5.450465 3.477019 -3.709977 -1.157351 9.822660 -15.152259 -20.196307 -161.849363 -79.151759 -161.902964 12.708915 -13.663859 -46.132995 -7.663553 -6.212817 -3.389485 -1.695540 -12.749124 2.156667 26.090534 -71.621463 -63.281917 -1.615454 -1.760960 18.521808 1.533688 -47.972871 -1.590219 -14.250990 64.587085 -19.265149 14.986608 29.097378 10.100685 0.321422 -19.557998 -0.244546 -2.789541 -44.271300 -1.546057 20.496225 65.893408 19.511600 -20.898150 4.947892 0.392139 0.019777 0.353462 -0.038462
-137.053839 57.719720 112.262029 175.828745 -28.451031 -0.599476 2.187963 20.775624 2.966634 0.198231 2.708732 0.384853 0.357943 4.416993 0.628586 1.693882 17.700548 2.765730 0.652528 6.409962 -2.533991 2.623367 -23.803910 -5.403079 3.477443 -3.711761 -1.155939 9.807890 -15.153577 -20.169309 -161.914638 -79.126854 -161.845508 12.696922 -13.634940 -46.136549 -7.662134 -6.218357 -3.397939 -1.694049 -12.770588 2.168935 26.133328 -71.605453 -63.362016 -1.610187 -1.738897 18.521439 1.550089 -47.976810 -1.648055 -14.130071 64.612224 -19.165085 14.953655 29.034034 10.073888 0.301865 -19.501864 -0.190127 -2.777570 -44.282388 -1.579957 20.409439 65.898773 19.371385 -20.858471 5.012091 0.464019 0.000307 0.344380 -0.044214
-137.073105 57.708262 112.275523 175.850210 -28.454177 -0.590327 2.258907 20.744687 2.964975 0.154760 2.723764 0.391910 0.369449 4.411918 0.625731 1.652614 17.715711 2.781030 0.657454 6.417042 -2.562968 2.580921 -23.790322 -5.378239 3.478049 -3.712771 -1.155654 9.841962 -15.171199 -20.157566 -162.027901 -79.075330 -161.738965 12.680476 -13.590947 -46.140788 -7.638323 -6.233311 -3.421034 -1.690052 -12.829004 2.186869 26.109107 -71.550701 -63.376187 -1.591662 -1.758810 18.514028 1.577862 -47.979431 -1.697539 -14.006394 64.634897 -19.056924 14.938399 28.972095 10.047542 0.270273 -19.446531 -0.131107 -2.747345 -44.295725 -1.602975 20.313015 65.911492 19.226230 -20.816229 5.096445 0.549216 -0.023607 0.313886 -0.061583
-137.100617 57.696127 112.289744 175.900150 -28.449949 -0.542411 2.235561 20.724028 2.898373 0.200916 2.707735 0.383810 0.338038 4.422821 0.632443 1.647256 17.719549 2.782315 0.629538 6.434700 -2.567781 2.517157 -23.747067 -5.381017 3.469559 -3.712004 -1.146685 9.870114 -15.198990 -20.121637 -162.212347 -79.098972 -161.595915 12.674262 -13.598987 -46.129120 -7.670572 -6.224323 -3.406431 -1.688199 -12.866342 2.202127 26.141614 -71.520396 -63.427256 -1.577097 -1.774693 18.506412 1.634966 -47.985933 -1.822740 -13.918749 64.652177 -18.979030 14.865807 28.946290 9.967463 0.323553 -19.416891 -0.064959 -2.682845 -44.323739 -1.694349 20.177405 65.926716 19.004050 -20.665660 5.213724 0.689434 -0.073385 0.315226 -0.073088
-137.121411 57.685586 112.301847 175.947359 -28.465254 -0.528421 2.216376 20.725145 2.868394 0.214361 2.702388 0.381437 0.339788 4.422816 0.632003 1.654059 17.718912 2.779958 0.598048 6.454364 -2.572370 2.448702 -23.703256 -5.384351 3.452223 -3.708320 -1.138269 9.838618 -15.197182 -20.094017 -162.305996 -79.068998 -161.494890 12.699580 -13.631056 -46.104405 -7.683368 -6.230342 -3.412031 -1.719298 -12.872781 2.241504 26.155884 -71.491288 -63.455277 -1.567188 -1.792105 18.501969 1.641337 -47.971991 -1.884246 -13.889812 64.659152 -18.954241 14.825514 28.896923 9.917988 0.333892 -19.364738 -0.022332 -2.672704 -44.318642 -1.735428 20.112564 65.923593 18.876310 -20.555517 5.302092 0.807021 -0.118319 0.311787 -0.105694
-137.133374 57.676381 112.312396 175.974726 -28.496844 -0.552126 2.246124 20.733512 2.890875 0.215671 2.702170 0.381250 0.341895 4.422497 0.631759 1.713391 17.699678 2.765331 0.511570 6.489644 -2.528736 2.416689 -23.685686 -5.381260 3.412463 -3.694047 -1.107080 9.802467 -15.206847 -20.054589 -162.448503 -79.065768 -161.360547 12.700564 -13.626196 -46.097869 -7.750151 -6.215493 -3.386616 -1.748764 -12.878313 2.282551 26.189246 -71.459901 -63.500199 -1.563220 -1.790959 18.499340 1.639654 -47.941458 -1.894937 -13.801737 64.679414 -18.863679 14.832276 28.789132 9.903415 0.262850 -19.271130 0.028880 -2.690609 -44.295472 -1.717082 20.074225 65.925563 18.818465 -20.448363 5.385538 0.864702 -0.154687 0.279825 -0.119361
-137.153433 57.665527 112.325393 176.037049 -28.507865 -0.539111 2.236105 20.718300 2.857134 0.204716 2.706857 0.383231 0.344129 4.421471 0.631657 1.696859 17.708910 2.773110 0.495415 6.500594 -2.532728 2.383032 -23.667799 -5.377772 3.432229 -3.696260 -1.113246 9.790183 -15.219831 -20.029428 -162.588453 -79.061559 -161.230450 12.700365 -13.620906 -46.090180 -7.745512 -6.223224 -3.395928 -1.772638 -12.883480 2.316096 26.239218 -71.445938 -63.564077 -1.554679 -1.783431 18.503663 1.707445 -47.926645 -2.019485 -13.764361 64.692438 -18.790266 14.784568 28.730900 9.867527 0.274182 -19.214347 0.061691 -2.639677 -44.302504 -1.769831 20.025405 65.918523 18.731128 -20.302316 5.500587 0.936942 -0.231493 0.241486 -0.117606
-137.178451 57.655823 112.335925 176.077181 -28.533094 -0.477314 2.217559 20.725223 2.781438 0.183150 2.716250 0.386346 0.357179 4.415756 0.629452 1.690075 17.711835 2.776559 0.485582 6.509977 -2.554251 2.282430 -23.594888 -5.409051 3.442450 -3.695244 -1.114774 9.789089 -15.234850 -20.016182 -162.673588 -79.066411 -161.159649 12.707032 -13.626271 -46.074859 -7.747256 -6.224169 -3.400311 -1.795824 -12.877175 2.336240 26.297009 -71.486957 -63.617326 -1.525179 -1.770556 18.494431 1.781532 -47.901235 -2.157490 -13.683616 64.707530 -18.710924 14.710321 28.693008 9.828374 0.284613 -19.171594 0.094490 -2.575501 -44.283044 -1.857216 20.086659 65.882969 18.719838 -20.100596 5.611937 1.063313 -0.393026 0.204004 -0.168778
-137.197203 57.646291 112.346856 176.142046 -28.557516 -0.455772 2.164652 20.741238 2.731460 0.184268 2.716326 0.386468 0.346116 4.420219 0.631519 1.780879 17.675376 2.753513 0.416732 6.549481 -2.569644 2.186618 -23.561505 -5.363549 3.373263 -3.671904 -1.073764 9.839180 -15.266110 -20.010565 -162.715870 -79.121809 -161.180985 12.727218 -13.649782 -46.050554 -7.822745 -6.196398 -3.368953 -1.808871 -12.897460 2.381394 26.311048 -71.456161 -63.652571 -1.531090 -1.778264 18.485662 1.803692 -47.874958 -2.250819 -13.597813 64.739024 -18.628703 14.597610 28.631034 9.729953 0.314864 -19.118098 0.169011 -2.558217 -44.264321 -1.936668 20.188955 65.867133 18.745851 -19.357326 5.670278 1.229342 -0.408662 0.224538 -0.185718
-137.189708 57.634482 112.364505 176.274430 -28.546463 -0.615242 2.107338 20.716419 2.838592 0.207309 2.706193 0.383117 0.348308 4.420306 0.631503 1.786676 17.674339 2.755165 0.377842 6.568607 -2.560959 2.152859 -23.543515 -5.361547 3.340868 -3.660761 -1.055518 9.857366 -15.277206 -20.009180 -162.810241 -79.110310 -161.096442 12.713617 -13.632923 -46.050279 -7.838157 -6.195460 -3.369303 -1.792293 -12.951917 2.467786 26.352656 -71.372561 -63.752581 -1.583221 -1.809619 18.469354 1.631988 -47.884993 -2.141616 -13.622207 64.744133 -18.621980 14.621505 28.586975 9.718184 0.295314 -19.084481 0.189514 -2.716253 -44.273386 -1.864878 20.361502 65.857943 18.831316 -17.916757 5.694928 1.337773 -0.088043 0.295761 -0.034282
-137.183726 57.623218 112.381426 176.367406 -28.536966 -0.735013 2.098141 20.681050 2.926741 0.248325 2.684389 0.379551 0.351704 4.420936 0.631536 1.743284 17.699744 2.772689 0.349320 6.583846 -2.561815 2.080695 -23.490701 -5.383509 3.348467 -3.662049 -1.061321 9.821430 -15.271196 -19.987645 -162.993786 -79.054473 -160.875758 12.680550 -13.588760 -46.075419 -7.845599 -6.196852 -3.374546 -1.809944 -12.951822 2.503297 26.358999 -71.391142 -63.770758 -1.561372 -1.801760 18.461199 1.568884 -47.895173 -2.101977 -13.683471 64.749109 -18.617599 14.637828 28.549335 9.717251 0.244610 -19.052356 0.209014 -2.818247 -44.279684 -1.813923 20.560007 65.832750 18.948492 -16.604289 5.725009 1.440652 0.170199 0.339157 0.098539
-137.187610 57.616055 112.390416 176.429687 -28.573418 -0.766221 2.125687 20.669155 2.950425 0.210099 2.706786 0.382990 0.352945 4.421252 0.631361 1.717917 17.715771 2.782036 0.344563 6.592022 -2.586949 2.010774 -23.448554 -5.381886 3.378453 -3.673195 -1.078242 9.824430 -15.276172 -19.978596 -163.049338 -79.060672 -160.836269 12.683412 -13.586733 -46.063148 -7.842432 -6.200366 -3.381211 -1.814656 -12.961310 2.532148 26.362642 -71.444565 -63.790058 -1.507457 -1.779438 18.457232 1.549003 -47.860005 -2.124257 -13.652321 64.772481 -18.570233 14.599750 28.497019 9.701767 0.239019 -19.011636 0.221507 -2.818623 -44.240916 -1.828086 20.686536 65.799256 19.027350 -15.880708 5.775604 1.550396 0.221070 0.342132 0.122322
